<?xml version="1.0" encoding="utf-8"?>
<!-- Generator: Adobe Illustrator 24.1.0, SVG Export Plug-In . SVG Version: 6.00 Build 0)  -->
<svg version="1.1" id="Ebene_1" xmlns="http://www.w3.org/2000/svg" xmlns:xlink="http://www.w3.org/1999/xlink" x="0px" y="0px"
	 viewBox="0 0 612 792" style="enable-background:new 0 0 612 792;" xml:space="preserve">
<style type="text/css">
	.st0{fill:#2798F2;}
	.st1{fill:#FFFFFF;}
	.st2{fill:none;}
</style>
<g>
	<g>
		<path d="M191.24,153.7c18.44,12.74,24.59,31.95,16.79,52.9c-0.83,2.21-0.56,3.57,0.95,5.29c13.42,15.25,26.79,30.55,40.08,45.93
			c1.73,2.01,3.03,2.2,5.4,1c38.69-19.56,76.3-17.58,112.65,6.06c2.52,1.64,3.75,1.37,5.76-0.64
			c21.74-21.85,43.59-43.59,65.39-65.37c1.33-1.33,2.89-2.26,1.97-4.97c-4.99-14.86-2.21-28.53,7.05-41.01
			c9.98-0.81,19.87,0.2,29.64,2.1c18.21,3.55,33.54,12.68,47.19,24.94c-2.19,31.05-27.01,48.93-56.75,40.75
			c-2.37-0.65-3.65-0.07-5.2,1.48c-22.02,22.04-44.02,44.1-66.21,65.97c-3,2.96-0.91,4.6,0.45,6.71
			c24.59,38.03,23.05,86.42-3.9,122.8c-4.28,5.78-9.18,11.01-14.56,15.74c-2.17,1.9-2.72,3.11-0.63,5.59
			c12.9,15.27,25.67,30.65,38.35,46.1c1.8,2.19,3.47,2.32,6.01,1.84c26.32-4.9,49.4,12.54,51.75,38.97
			c1.89,21.2-13.51,41.28-34.7,45.24c-22.17,4.15-43.69-9.01-49.64-30.41c-2.68-9.63-2.24-19.14,1.81-28.3
			c1.11-2.51,0.82-4.13-0.92-6.2c-13.93-16.58-27.78-33.23-41.55-49.94c-1.73-2.1-3.14-2.74-5.87-1.74
			c-13.27,4.91-27.04,7.07-41.18,6.36c-2.61-0.13-3.82,0.59-4.66,3.14c-2.71,8.22-5.56,16.4-8.69,24.46
			c-1.11,2.85-0.36,4.43,1.55,6.48c11.51,12.31,15.48,26.77,10.26,42.87c-5.25,16.19-16.72,26.12-33.53,29.37
			c-22.81,4.41-45.02-10.96-49.69-34.18c-4.56-22.66,10.34-45.44,33.02-49.99c3.91-0.79,6.01-2.2,7.18-6.11
			c2.09-7.01,4.68-13.88,7.31-20.71c0.92-2.4,0.54-3.41-1.83-4.47c-17.05-7.62-31.39-18.76-42.5-33.84
			c-2.09-2.84-3.49-1.82-5.61-0.31c-28.63,20.38-57.28,40.73-85.98,61c-2.18,1.54-2.74,2.97-2.44,5.73
			c1.92,17.38-4.09,31.65-18.63,41.42c-14.51,9.75-30.11,10.4-45.32,1.65c-15.17-8.74-22.5-22.45-21.61-39.94
			c1.53-30.14,34.11-49.19,61.32-35.95c3.33,1.62,5.43,1.43,8.39-0.7c29.65-21.25,59.39-42.36,89.21-63.37
			c2.82-1.98,3.35-3.73,2.54-6.99c-8.73-35.34-1.66-67.3,21.19-95.64c2.09-2.59,2.19-3.94-0.07-6.48
			c-13.06-14.68-25.92-29.55-38.79-44.4c-1.39-1.6-2.55-2.74-5.01-2.1c-24.37,6.42-50.46-10.08-53.58-37.75
			c4.19-7.25,10.33-12.8,16.41-18.33C155.81,162.99,172.7,156.44,191.24,153.7z M305.92,411.29c32.01-0.01,57.99-25.8,58.07-57.65
			c0.08-32.11-25.76-58.2-57.93-58.48c-31.81-0.28-58.27,26.1-58.24,58.08C247.84,385.53,273.64,411.3,305.92,411.29z"/>
		<path class="st0" d="M423.56,161.17c-0.6-0.79-1.37-1.49-1.78-2.37c-1.67-3.64-4.32-4.13-7.81-2.8c-3.23,1.24-4,0.11-2.67-2.98
			c0.79-1.82,1.33-3.76,1.94-5.65c0.41-1.29,1.2-2.26,2.52-1.59c4,2.05,4.49-1.09,5.33-3.52c2.76-7.98,5.19-16.09,8.24-23.96
			c1.66-4.28,1.55-7.55-2.29-10.4c-0.72-0.54-1.05-1.6-1.87-2.9c2.4-0.47,4.4-0.95,6.43-1.22c2.06-0.28,3.02-1.27,3.73-3.32
			c2.16-6.26,5.84-7.37,10.76-3c2.66,2.36,4.92,2.87,8.41,2.2c18.11-3.5,36.28-6.64,54.44-9.87c2.91-0.52,5.58-1.05,8.07,1.82
			c17.92,20.67,36.01,41.2,54.03,61.78c0.29,0.33,0.43,0.79,0.94,1.76c-10.22,1.02-20.06,2-30.47,3.04
			c1.61-4.02-1.03-6.04-3.32-8.33c-23.79-23.74-52.56-32.45-85.57-28.54c-2.4,0.28-4.05,0.8-4.58,3.52c-0.8,4.06-2.42,3.39-4.6,0.71
			c-2.18-2.7-4.81-5.03-7.08-7.66c-1.53-1.78-2.41-1.44-3.08,0.54c-3.12,9.27-6.23,18.55-9.31,27.83c-0.19,0.57-0.37,1.66-0.16,1.77
			C431.85,152.25,423.76,156.56,423.56,161.17z"/>
		<path class="st1" d="M74.72,182.89c5.33-10.07,10.26-19.43,15.23-28.76c7.34-13.77,14.77-27.48,22.02-41.3
			c1.45-2.77,3.05-4.03,6.42-4.17c18.27-0.77,36.53-1.97,54.8-2.85c2.64-0.13,4.14-1.06,5.61-3.18c4.11-5.98,7.2-6.05,11.24-0.1
			c2.04,3.01,4.6,2.1,7.12,1.87c2.87-0.27,3.66,0.84,1.91,2.95c-3.43,4.15-1.52,7.4,0.93,11.06c4.43,6.63,8.52,13.49,12.79,20.23
			c0.69,1.08,1.44,3.25,2.58,2.67c8.18-4.13,5.84,5.19,9.75,7.05c-5.8-0.02-10.22,1.33-11.26,8.56c-2.16-3.44-3.66-5.79-5.11-8.16
			c-0.49-0.81-1.45-1.96-0.26-2.59c4.61-2.44,1.43-4.84,0.03-7.12c-3.92-6.37-8.12-12.58-11.88-19.04c-2.09-3.6-3.3-2.66-4.84,0.21
			c-1.8,3.35-3.7,6.65-6.02,10.78c-3.43-7.98-9.4-5.17-14.89-4.29c-29.23,4.68-51.2,20.02-66.34,45.33
			c-0.51,0.85-1.59,1.86-1.42,2.54c1.45,5.69-2.7,4.78-5.84,5.2C90.06,180.74,82.84,181.76,74.72,182.89z"/>
		<path class="st0" d="M526.41,176.33c-13.65-12.26-28.98-21.39-47.19-24.94c-9.77-1.9-19.65-2.91-29.64-2.1
			c-3.89,0.46-4.39-1.24-3.15-4.53c1.86-4.95,3.65-9.95,5.1-15.04c0.92-3.21,2.65-4.38,5.92-4.74c29.93-3.28,55.66,5.13,76.81,26.9
			c1.9,1.96,2.47,3.63,1.54,6.14c-1.95,5.28-3.86,10.58-5.52,15.95C529.6,176.19,528.63,177.08,526.41,176.33z"/>
		<path class="st1" d="M189.15,150.57c-18.54,2.75-35.43,9.29-49.46,22.05c-6.08,5.53-12.22,11.08-16.41,18.33
			c-2.17,2.46-3.93,3.05-5.79-0.53c-1.82-3.53-3.85-7.05-6.38-10.09c-3.5-4.19-2.75-7.61,0.06-11.84
			c14.87-22.44,35.79-34.83,62.25-38.45c3.85-0.53,6.54-0.15,8.48,3.81c2.1,4.29,4.95,8.23,7.58,12.25
			C190.58,147.78,191.57,149.25,189.15,150.57z"/>
	</g>
	<rect x="38" y="122" class="st2" width="534" height="535.92"/>
</g>
</svg>
