<?xml version="1.0" encoding="utf-8"?>
<!-- Generator: Adobe Illustrator 24.1.0, SVG Export Plug-In . SVG Version: 6.00 Build 0)  -->
<svg version="1.1" id="Ebene_1" xmlns="http://www.w3.org/2000/svg" xmlns:xlink="http://www.w3.org/1999/xlink" x="0px" y="0px"
	 viewBox="0 0 612 792" style="enable-background:new 0 0 612 792;" xml:space="preserve">
<style type="text/css">
	.st0{fill:#FFFFFF;}
	.st1{fill:none;}
</style>
<g>
	<g>
		<path class="st0" d="M184.95,151.02c17.67,12.21,23.57,30.62,16.09,50.7c-0.79,2.12-0.54,3.42,0.91,5.07
			c12.86,14.62,25.68,29.28,38.41,44.02c1.66,1.92,2.9,2.11,5.18,0.96c37.08-18.75,73.13-16.85,107.97,5.81
			c2.41,1.57,3.59,1.32,5.52-0.62c20.83-20.94,41.77-41.77,62.67-62.65c1.28-1.28,2.77-2.16,1.89-4.76
			c-4.78-14.24-2.11-27.34,6.75-39.31c9.57-0.77,19.04,0.19,28.4,2.01c17.45,3.4,32.15,12.15,45.23,23.9
			c-2.1,29.76-25.89,46.9-54.39,39.06c-2.27-0.62-3.5-0.06-4.98,1.42c-21.11,21.12-42.19,42.27-63.46,63.22
			c-2.88,2.84-0.88,4.41,0.43,6.43c23.57,36.45,22.09,82.83-3.74,117.69c-4.1,5.54-8.79,10.56-13.96,15.09
			c-2.08,1.82-2.6,2.98-0.6,5.35c12.36,14.64,24.6,29.37,36.75,44.18c1.72,2.1,3.32,2.22,5.76,1.77
			c25.23-4.69,47.34,12.02,49.6,37.35c1.81,20.32-12.95,39.57-33.25,43.36c-21.25,3.97-41.87-8.64-47.58-29.14
			c-2.57-9.23-2.15-18.34,1.74-27.13c1.07-2.41,0.78-3.96-0.88-5.94c-13.35-15.89-26.62-31.85-39.82-47.87
			c-1.65-2.01-3.01-2.63-5.63-1.66c-12.72,4.7-25.91,6.77-39.47,6.1c-2.51-0.13-3.66,0.56-4.47,3.01
			c-2.6,7.88-5.33,15.72-8.33,23.45c-1.06,2.73-0.35,4.24,1.49,6.21c11.03,11.8,14.83,25.65,9.83,41.09
			c-5.03,15.52-16.02,25.03-32.13,28.15c-21.86,4.23-43.15-10.5-47.63-32.76c-4.37-21.72,9.91-43.55,31.65-47.92
			c3.74-0.75,5.76-2.11,6.88-5.86c2-6.72,4.49-13.3,7.01-19.85c0.89-2.3,0.52-3.26-1.76-4.28c-16.35-7.31-30.09-17.98-40.74-32.43
			c-2-2.72-3.34-1.74-5.37-0.3c-27.44,19.54-54.9,39.03-82.41,58.47c-2.08,1.47-2.63,2.84-2.34,5.49
			c1.84,16.66-3.92,30.34-17.85,39.7c-13.9,9.35-28.86,9.97-43.44,1.58c-14.54-8.37-21.56-21.52-20.71-38.28
			c1.47-28.88,32.69-47.15,58.77-34.46c3.2,1.56,5.2,1.37,8.05-0.67c28.42-20.36,56.92-40.6,85.5-60.74c2.7-1.9,3.21-3.58,2.43-6.7
			c-8.37-33.88-1.59-64.5,20.31-91.66c2-2.48,2.1-3.77-0.07-6.21c-12.52-14.07-24.84-28.32-37.18-42.55
			c-1.33-1.53-2.44-2.63-4.8-2.01c-23.36,6.15-48.36-9.66-51.35-36.18c4.02-6.95,9.9-12.27,15.73-17.57
			C151,159.93,167.19,153.66,184.95,151.02z M294.87,397.91c30.67-0.01,55.58-24.73,55.66-55.25c0.08-30.77-24.69-55.78-55.52-56.05
			c-30.49-0.27-55.84,25.02-55.82,55.67C239.2,373.22,263.93,397.92,294.87,397.91z"/>
		<path class="st0" d="M407.62,158.18c-0.58-0.75-1.32-1.43-1.7-2.27c-1.6-3.49-4.14-3.96-7.48-2.68c-3.09,1.19-3.83,0.11-2.56-2.85
			c0.75-1.75,1.28-3.6,1.86-5.42c0.39-1.23,1.15-2.17,2.42-1.52c3.83,1.96,4.3-1.05,5.11-3.38c2.65-7.65,4.98-15.42,7.9-22.96
			c1.59-4.1,1.48-7.24-2.19-9.97c-0.69-0.51-1.01-1.53-1.79-2.78c2.3-0.45,4.22-0.91,6.16-1.17c1.98-0.27,2.9-1.21,3.57-3.18
			c2.07-6,5.6-7.06,10.31-2.88c2.54,2.26,4.71,2.75,8.06,2.11c17.35-3.35,34.77-6.36,52.18-9.46c2.79-0.5,5.35-1.01,7.74,1.74
			c17.18,19.81,34.51,39.49,51.79,59.22c0.28,0.32,0.41,0.75,0.9,1.69c-9.8,0.98-19.22,1.92-29.2,2.91
			c1.54-3.86-0.99-5.79-3.18-7.98c-22.8-22.75-50.37-31.1-82.01-27.36c-2.3,0.27-3.88,0.76-4.39,3.37c-0.76,3.89-2.32,3.25-4.4,0.68
			c-2.09-2.58-4.61-4.82-6.78-7.34c-1.47-1.7-2.31-1.38-2.95,0.52c-2.99,8.89-5.97,17.78-8.92,26.67c-0.18,0.55-0.35,1.59-0.15,1.7
			C415.56,149.64,407.81,153.77,407.62,158.18z"/>
		<path class="st0" d="M73.28,179c5.11-9.66,9.83-18.62,14.6-27.56c7.03-13.19,14.16-26.34,21.1-39.58
			c1.39-2.66,2.92-3.86,6.16-3.99c17.52-0.74,35.01-1.89,52.52-2.73c2.53-0.12,3.97-1.01,5.37-3.05c3.94-5.73,6.9-5.8,10.78-0.09
			c1.96,2.88,4.41,2.02,6.82,1.79c2.75-0.26,3.5,0.8,1.83,2.83c-3.29,3.97-1.45,7.09,0.89,10.6c4.25,6.35,8.16,12.93,12.26,19.39
			c0.66,1.04,1.38,3.11,2.47,2.56c7.84-3.96,5.6,4.97,9.34,6.75c-5.56-0.02-9.79,1.28-10.79,8.2c-2.07-3.3-3.51-5.55-4.89-7.82
			c-0.47-0.77-1.39-1.88-0.25-2.48c4.41-2.34,1.37-4.64,0.03-6.83c-3.76-6.11-7.78-12.05-11.39-18.25c-2.01-3.45-3.16-2.55-4.64,0.2
			c-1.73,3.21-3.55,6.37-5.77,10.33c-3.29-7.65-9.01-4.96-14.27-4.11c-28.02,4.49-49.07,19.19-63.58,43.45
			c-0.49,0.82-1.52,1.78-1.36,2.44c1.39,5.45-2.59,4.58-5.6,4.98C87.98,176.94,81.06,177.92,73.28,179z"/>
		<path class="st0" d="M506.19,172.72c-13.08-11.75-27.78-20.5-45.23-23.9c-9.36-1.82-18.83-2.79-28.4-2.01
			c-3.73,0.44-4.2-1.19-3.01-4.35c1.79-4.75,3.5-9.54,4.89-14.41c0.88-3.08,2.54-4.2,5.68-4.54c28.68-3.15,53.34,4.92,73.62,25.78
			c1.83,1.88,2.37,3.48,1.47,5.89c-1.87,5.06-3.7,10.14-5.29,15.29C509.25,172.58,508.33,173.43,506.19,172.72z"/>
		<path class="st0" d="M182.95,148.02c-17.77,2.63-33.96,8.9-47.4,21.13c-5.82,5.3-11.71,10.62-15.73,17.57
			c-2.08,2.35-3.77,2.93-5.55-0.51c-1.75-3.38-3.69-6.76-6.11-9.67c-3.35-4.02-2.63-7.3,0.05-11.35
			c14.25-21.51,34.3-33.38,59.67-36.85c3.69-0.5,6.27-0.15,8.13,3.65c2.01,4.11,4.74,7.89,7.26,11.74
			C184.33,145.35,185.28,146.76,182.95,148.02z"/>
	</g>
	<rect x="38" y="122" class="st1" width="534" height="535.92"/>
</g>
</svg>
